<mxfile host="app.diagrams.net" modified="2023-02-09T17:06:49.750Z" agent="5.0 (X11; Linux x86_64) AppleWebKit/537.36 (KHTML, like Gecko) Chrome/109.0.0.0 Safari/537.36" etag="xKXd6x8m4vI0b_eEh4BW" version="20.8.18" type="github">
  <diagram name="Page-1" id="0s0AEqWmpsJgKdMsx_v3">
    <mxGraphModel dx="1666" dy="946" grid="1" gridSize="10" guides="1" tooltips="1" connect="1" arrows="1" fold="1" page="1" pageScale="1" pageWidth="850" pageHeight="1100" background="none" math="0" shadow="0">
      <root>
        <mxCell id="0" />
        <mxCell id="1" parent="0" />
        <mxCell id="VTjZ96peAMA51dBqPZb--27" value="client 1" style="rounded=0;whiteSpace=wrap;html=1;fillColor=#dae8fc;strokeColor=#6c8ebf;" vertex="1" parent="1">
          <mxGeometry x="88.47999999999996" y="510" width="80" height="50" as="geometry" />
        </mxCell>
        <mxCell id="VTjZ96peAMA51dBqPZb--33" value="tcp_server&lt;br&gt;&lt;b&gt;worker 1&lt;/b&gt;" style="rounded=1;whiteSpace=wrap;html=1;fillColor=#fff2cc;strokeColor=#d6b656;" vertex="1" parent="1">
          <mxGeometry x="78.82999999999998" y="350" width="100" height="50" as="geometry" />
        </mxCell>
        <mxCell id="VTjZ96peAMA51dBqPZb--37" value="translation_layer&lt;br&gt;&lt;b&gt;worker 1&lt;/b&gt;" style="rounded=1;whiteSpace=wrap;html=1;fillColor=#fff2cc;strokeColor=#d6b656;" vertex="1" parent="1">
          <mxGeometry x="79.30000000000001" y="189.05" width="100.7" height="50.95" as="geometry" />
        </mxCell>
        <mxCell id="VTjZ96peAMA51dBqPZb--39" value="call" style="endArrow=classic;html=1;rounded=0;exitX=0.5;exitY=0;exitDx=0;exitDy=0;entryX=0.5;entryY=1;entryDx=0;entryDy=0;" edge="1" parent="1" source="VTjZ96peAMA51dBqPZb--33" target="VTjZ96peAMA51dBqPZb--37">
          <mxGeometry width="50" height="50" relative="1" as="geometry">
            <mxPoint x="270" y="210" as="sourcePoint" />
            <mxPoint x="320" y="160" as="targetPoint" />
          </mxGeometry>
        </mxCell>
        <mxCell id="VTjZ96peAMA51dBqPZb--40" value="tcp_server&lt;br&gt;&lt;b&gt;worker 2&lt;/b&gt;" style="rounded=1;whiteSpace=wrap;html=1;fillColor=#fff2cc;strokeColor=#d6b656;" vertex="1" parent="1">
          <mxGeometry x="198.82999999999998" y="350" width="100" height="50" as="geometry" />
        </mxCell>
        <mxCell id="VTjZ96peAMA51dBqPZb--41" value="translation_layer&lt;br&gt;&lt;b&gt;worker 2&lt;/b&gt;" style="rounded=1;whiteSpace=wrap;html=1;fillColor=#fff2cc;strokeColor=#d6b656;" vertex="1" parent="1">
          <mxGeometry x="200" y="189.05" width="98.83" height="50" as="geometry" />
        </mxCell>
        <mxCell id="VTjZ96peAMA51dBqPZb--42" value="call" style="endArrow=classic;html=1;rounded=0;exitX=0.5;exitY=0;exitDx=0;exitDy=0;entryX=0.5;entryY=1;entryDx=0;entryDy=0;" edge="1" parent="1" source="VTjZ96peAMA51dBqPZb--40" target="VTjZ96peAMA51dBqPZb--41">
          <mxGeometry width="50" height="50" relative="1" as="geometry">
            <mxPoint x="238.13" y="220" as="sourcePoint" />
            <mxPoint x="288.13" y="170" as="targetPoint" />
          </mxGeometry>
        </mxCell>
        <mxCell id="VTjZ96peAMA51dBqPZb--43" value="tcp_server&lt;br&gt;&lt;b&gt;worker n&lt;/b&gt;" style="rounded=1;whiteSpace=wrap;html=1;fillColor=#fff2cc;strokeColor=#d6b656;" vertex="1" parent="1">
          <mxGeometry x="318.83000000000004" y="350" width="100" height="50" as="geometry" />
        </mxCell>
        <mxCell id="VTjZ96peAMA51dBqPZb--44" value="translation_layer&lt;br style=&quot;border-color: var(--border-color);&quot;&gt;&lt;b style=&quot;border-color: var(--border-color);&quot;&gt;worker n&lt;/b&gt;" style="rounded=1;whiteSpace=wrap;html=1;fillColor=#fff2cc;strokeColor=#d6b656;" vertex="1" parent="1">
          <mxGeometry x="320" y="189.05" width="98.83" height="50" as="geometry" />
        </mxCell>
        <mxCell id="VTjZ96peAMA51dBqPZb--45" value="call" style="endArrow=classic;html=1;rounded=0;exitX=0.5;exitY=0;exitDx=0;exitDy=0;entryX=0.5;entryY=1;entryDx=0;entryDy=0;" edge="1" parent="1" source="VTjZ96peAMA51dBqPZb--43" target="VTjZ96peAMA51dBqPZb--44">
          <mxGeometry width="50" height="50" relative="1" as="geometry">
            <mxPoint x="186.26" y="130" as="sourcePoint" />
            <mxPoint x="236.26" y="80" as="targetPoint" />
          </mxGeometry>
        </mxCell>
        <mxCell id="VTjZ96peAMA51dBqPZb--47" value="client 2" style="rounded=0;whiteSpace=wrap;html=1;fillColor=#dae8fc;strokeColor=#6c8ebf;" vertex="1" parent="1">
          <mxGeometry x="208.05999999999995" y="510" width="80.35" height="50" as="geometry" />
        </mxCell>
        <mxCell id="VTjZ96peAMA51dBqPZb--48" value="client n" style="rounded=0;whiteSpace=wrap;html=1;fillColor=#dae8fc;strokeColor=#6c8ebf;" vertex="1" parent="1">
          <mxGeometry x="328.45000000000005" y="510" width="80.77" height="50" as="geometry" />
        </mxCell>
        <mxCell id="VTjZ96peAMA51dBqPZb--49" value="chat_controller" style="shape=cube;whiteSpace=wrap;html=1;boundedLbl=1;backgroundOutline=1;darkOpacity=0.05;darkOpacity2=0.1;fillColor=#e1d5e7;strokeColor=#9673a6;fontStyle=1" vertex="1" parent="1">
          <mxGeometry x="169.65000000000003" y="40" width="150" height="100" as="geometry" />
        </mxCell>
        <mxCell id="VTjZ96peAMA51dBqPZb--50" value="cast" style="endArrow=classic;dashed=1;html=1;rounded=0;exitX=0.5;exitY=0;exitDx=0;exitDy=0;endFill=1;" edge="1" parent="1" source="VTjZ96peAMA51dBqPZb--37">
          <mxGeometry width="50" height="50" relative="1" as="geometry">
            <mxPoint x="90" y="210" as="sourcePoint" />
            <mxPoint x="210" y="140" as="targetPoint" />
          </mxGeometry>
        </mxCell>
        <mxCell id="VTjZ96peAMA51dBqPZb--51" value="cast" style="endArrow=classic;dashed=1;html=1;rounded=0;exitX=0.5;exitY=0;exitDx=0;exitDy=0;endFill=1;entryX=0.523;entryY=0.998;entryDx=0;entryDy=0;entryPerimeter=0;" edge="1" parent="1" source="VTjZ96peAMA51dBqPZb--41" target="VTjZ96peAMA51dBqPZb--49">
          <mxGeometry width="50" height="50" relative="1" as="geometry">
            <mxPoint x="140" y="199" as="sourcePoint" />
            <mxPoint x="205" y="90" as="targetPoint" />
          </mxGeometry>
        </mxCell>
        <mxCell id="VTjZ96peAMA51dBqPZb--52" value="cast" style="endArrow=classic;dashed=1;html=1;rounded=0;exitX=0.5;exitY=0;exitDx=0;exitDy=0;startArrow=none;startFill=0;endFill=1;" edge="1" parent="1" source="VTjZ96peAMA51dBqPZb--44" target="VTjZ96peAMA51dBqPZb--49">
          <mxGeometry width="50" height="50" relative="1" as="geometry">
            <mxPoint x="150" y="209" as="sourcePoint" />
            <mxPoint x="320" y="140" as="targetPoint" />
          </mxGeometry>
        </mxCell>
        <mxCell id="VTjZ96peAMA51dBqPZb--53" value="" style="shape=actor;whiteSpace=wrap;html=1;" vertex="1" parent="1">
          <mxGeometry x="58.829999999999984" y="480" width="40" height="60" as="geometry" />
        </mxCell>
        <mxCell id="VTjZ96peAMA51dBqPZb--54" value="" style="shape=actor;whiteSpace=wrap;html=1;" vertex="1" parent="1">
          <mxGeometry x="298.83000000000004" y="480" width="40" height="60" as="geometry" />
        </mxCell>
        <mxCell id="VTjZ96peAMA51dBqPZb--55" value="" style="shape=actor;whiteSpace=wrap;html=1;" vertex="1" parent="1">
          <mxGeometry x="178.82999999999998" y="480" width="40" height="60" as="geometry" />
        </mxCell>
        <mxCell id="VTjZ96peAMA51dBqPZb--56" value="&lt;b&gt;TCP link&lt;/b&gt;" style="shape=flexArrow;endArrow=classic;startArrow=classic;html=1;rounded=0;exitX=0.5;exitY=0;exitDx=0;exitDy=0;entryX=0.5;entryY=1;entryDx=0;entryDy=0;" edge="1" parent="1" source="VTjZ96peAMA51dBqPZb--27" target="VTjZ96peAMA51dBqPZb--33">
          <mxGeometry width="100" height="100" relative="1" as="geometry">
            <mxPoint x="58.829999999999984" y="320" as="sourcePoint" />
            <mxPoint x="158.82999999999998" y="220" as="targetPoint" />
          </mxGeometry>
        </mxCell>
        <mxCell id="VTjZ96peAMA51dBqPZb--57" value="TCP link" style="shape=flexArrow;endArrow=classic;startArrow=classic;html=1;rounded=0;exitX=0.5;exitY=0;exitDx=0;exitDy=0;entryX=0.5;entryY=1;entryDx=0;entryDy=0;fontStyle=1" edge="1" parent="1" source="VTjZ96peAMA51dBqPZb--48">
          <mxGeometry width="100" height="100" relative="1" as="geometry">
            <mxPoint x="368.4200000000001" y="480" as="sourcePoint" />
            <mxPoint x="368.4200000000001" y="400" as="targetPoint" />
          </mxGeometry>
        </mxCell>
        <mxCell id="VTjZ96peAMA51dBqPZb--58" value="TCP link" style="shape=flexArrow;endArrow=classic;startArrow=classic;html=1;rounded=0;exitX=0.5;exitY=0;exitDx=0;exitDy=0;entryX=0.5;entryY=1;entryDx=0;entryDy=0;fontStyle=1" edge="1" parent="1" source="VTjZ96peAMA51dBqPZb--47">
          <mxGeometry width="100" height="100" relative="1" as="geometry">
            <mxPoint x="247.83000000000004" y="480" as="sourcePoint" />
            <mxPoint x="247.83000000000004" y="400" as="targetPoint" />
          </mxGeometry>
        </mxCell>
        <mxCell id="VTjZ96peAMA51dBqPZb--64" value="&lt;b&gt;cast:output&lt;/b&gt;" style="edgeStyle=elbowEdgeStyle;elbow=horizontal;endArrow=none;html=1;curved=0;rounded=0;endSize=8;startSize=8;exitX=0.012;exitY=0.557;exitDx=0;exitDy=0;exitPerimeter=0;endFill=0;targetPerimeterSpacing=1;strokeWidth=2;fillColor=#e1d5e7;strokeColor=#9673a6;" edge="1" parent="1" source="VTjZ96peAMA51dBqPZb--49">
          <mxGeometry x="-0.2935" width="50" height="50" relative="1" as="geometry">
            <mxPoint x="160" y="80" as="sourcePoint" />
            <mxPoint x="345" y="270" as="targetPoint" />
            <Array as="points">
              <mxPoint x="40" y="180" />
            </Array>
            <mxPoint as="offset" />
          </mxGeometry>
        </mxCell>
        <mxCell id="VTjZ96peAMA51dBqPZb--65" value="" style="endArrow=classic;html=1;rounded=0;entryX=0.25;entryY=1;entryDx=0;entryDy=0;fillColor=#e1d5e7;strokeColor=#9673a6;strokeWidth=2;" edge="1" parent="1" target="VTjZ96peAMA51dBqPZb--44">
          <mxGeometry width="50" height="50" relative="1" as="geometry">
            <mxPoint x="345" y="270" as="sourcePoint" />
            <mxPoint x="140" y="160" as="targetPoint" />
            <Array as="points">
              <mxPoint x="345" y="260" />
              <mxPoint x="345" y="250" />
            </Array>
          </mxGeometry>
        </mxCell>
        <mxCell id="VTjZ96peAMA51dBqPZb--66" value="" style="endArrow=classic;html=1;rounded=0;entryX=0.25;entryY=1;entryDx=0;entryDy=0;fillColor=#e1d5e7;strokeColor=#9673a6;" edge="1" parent="1" target="VTjZ96peAMA51dBqPZb--41">
          <mxGeometry width="50" height="50" relative="1" as="geometry">
            <mxPoint x="225" y="270" as="sourcePoint" />
            <mxPoint x="218.83000000000004" y="250" as="targetPoint" />
          </mxGeometry>
        </mxCell>
        <mxCell id="VTjZ96peAMA51dBqPZb--67" value="" style="endArrow=classic;html=1;rounded=0;entryX=0.25;entryY=1;entryDx=0;entryDy=0;strokeWidth=2;fillColor=#e1d5e7;strokeColor=#9673a6;" edge="1" parent="1" target="VTjZ96peAMA51dBqPZb--37">
          <mxGeometry width="50" height="50" relative="1" as="geometry">
            <mxPoint x="104" y="270" as="sourcePoint" />
            <mxPoint x="110" y="240" as="targetPoint" />
          </mxGeometry>
        </mxCell>
      </root>
    </mxGraphModel>
  </diagram>
</mxfile>
